<svg xmlns="http://www.w3.org/2000/svg" xmlns:xlink="http://www.w3.org/1999/xlink" width="500" zoomAndPan="magnify" viewBox="0 0 375 194.87999" height="250" preserveAspectRatio="xMidYMid meet" version="1.0"><defs><filter x="0%" y="0%" width="100%" height="100%" id="fbfdb977bc"><feColorMatrix values="0 0 0 0 1 0 0 0 0 1 0 0 0 0 1 0 0 0 1 0" color-interpolation-filters="sRGB"/></filter><g/><clipPath id="a85276d1ac"><path d="M 184 14 L 329 14 L 329 157.5 L 184 157.5 Z M 184 14 " clip-rule="nonzero"/></clipPath><mask id="18e36deb1f"><g filter="url(#fbfdb977bc)"><rect x="-98.5" width="540" fill="#000000" y="-50.873598" height="280.627186" fill-opacity="0.5"/></g></mask><clipPath id="484aaa48e4"><path d="M 0.882812 0.21875 L 143.933594 0.21875 L 143.933594 143.269531 L 0.882812 143.269531 Z M 0.882812 0.21875 " clip-rule="nonzero"/></clipPath><clipPath id="3358559d4a"><path d="M 72.410156 0.21875 C 32.90625 0.21875 0.882812 32.242188 0.882812 71.742188 C 0.882812 111.246094 32.90625 143.269531 72.410156 143.269531 C 111.910156 143.269531 143.933594 111.246094 143.933594 71.742188 C 143.933594 32.242188 111.910156 0.21875 72.410156 0.21875 Z M 72.410156 0.21875 " clip-rule="nonzero"/></clipPath><clipPath id="e5cbbf275f"><path d="M 0.882812 0.21875 L 143.933594 0.21875 L 143.933594 143.269531 L 0.882812 143.269531 Z M 0.882812 0.21875 " clip-rule="nonzero"/></clipPath><clipPath id="4e3b59efa3"><path d="M 72.410156 0.21875 C 32.90625 0.21875 0.882812 32.242188 0.882812 71.742188 C 0.882812 111.246094 32.90625 143.269531 72.410156 143.269531 C 111.910156 143.269531 143.933594 111.246094 143.933594 71.742188 C 143.933594 32.242188 111.910156 0.21875 72.410156 0.21875 Z M 72.410156 0.21875 " clip-rule="nonzero"/></clipPath><linearGradient x1="0" gradientTransform="matrix(0.558787, 0, 0, 0.558787, 0.883922, 0.219088)" y1="128" x2="256" gradientUnits="userSpaceOnUse" y2="128" id="a35162e159"><stop stop-opacity="1" stop-color="rgb(100%, 19.219971%, 19.219971%)" offset="0"/><stop stop-opacity="1" stop-color="rgb(100%, 19.366455%, 19.262695%)" offset="0.0078125"/><stop stop-opacity="1" stop-color="rgb(100%, 19.659424%, 19.348145%)" offset="0.015625"/><stop stop-opacity="1" stop-color="rgb(100%, 19.953918%, 19.433594%)" offset="0.0234375"/><stop stop-opacity="1" stop-color="rgb(100%, 20.248413%, 19.519043%)" offset="0.03125"/><stop stop-opacity="1" stop-color="rgb(100%, 20.541382%, 19.604492%)" offset="0.0390625"/><stop stop-opacity="1" stop-color="rgb(100%, 20.835876%, 19.691467%)" offset="0.046875"/><stop stop-opacity="1" stop-color="rgb(100%, 21.130371%, 19.776917%)" offset="0.0546875"/><stop stop-opacity="1" stop-color="rgb(100%, 21.424866%, 19.862366%)" offset="0.0625"/><stop stop-opacity="1" stop-color="rgb(100%, 21.717834%, 19.947815%)" offset="0.0703125"/><stop stop-opacity="1" stop-color="rgb(100%, 22.012329%, 20.033264%)" offset="0.078125"/><stop stop-opacity="1" stop-color="rgb(100%, 22.306824%, 20.120239%)" offset="0.0859375"/><stop stop-opacity="1" stop-color="rgb(100%, 22.599792%, 20.205688%)" offset="0.09375"/><stop stop-opacity="1" stop-color="rgb(100%, 22.894287%, 20.291138%)" offset="0.101562"/><stop stop-opacity="1" stop-color="rgb(100%, 23.188782%, 20.376587%)" offset="0.109375"/><stop stop-opacity="1" stop-color="rgb(100%, 23.483276%, 20.463562%)" offset="0.117188"/><stop stop-opacity="1" stop-color="rgb(100%, 23.776245%, 20.549011%)" offset="0.125"/><stop stop-opacity="1" stop-color="rgb(100%, 24.07074%, 20.63446%)" offset="0.132812"/><stop stop-opacity="1" stop-color="rgb(100%, 24.365234%, 20.71991%)" offset="0.140625"/><stop stop-opacity="1" stop-color="rgb(100%, 24.658203%, 20.805359%)" offset="0.148438"/><stop stop-opacity="1" stop-color="rgb(100%, 24.952698%, 20.892334%)" offset="0.15625"/><stop stop-opacity="1" stop-color="rgb(100%, 25.247192%, 20.977783%)" offset="0.164062"/><stop stop-opacity="1" stop-color="rgb(100%, 25.541687%, 21.063232%)" offset="0.171875"/><stop stop-opacity="1" stop-color="rgb(100%, 25.834656%, 21.148682%)" offset="0.179687"/><stop stop-opacity="1" stop-color="rgb(100%, 26.12915%, 21.235657%)" offset="0.1875"/><stop stop-opacity="1" stop-color="rgb(100%, 26.423645%, 21.321106%)" offset="0.195312"/><stop stop-opacity="1" stop-color="rgb(100%, 26.716614%, 21.406555%)" offset="0.203125"/><stop stop-opacity="1" stop-color="rgb(100%, 27.011108%, 21.492004%)" offset="0.210937"/><stop stop-opacity="1" stop-color="rgb(100%, 27.305603%, 21.577454%)" offset="0.21875"/><stop stop-opacity="1" stop-color="rgb(100%, 27.600098%, 21.664429%)" offset="0.226562"/><stop stop-opacity="1" stop-color="rgb(100%, 27.893066%, 21.749878%)" offset="0.234375"/><stop stop-opacity="1" stop-color="rgb(100%, 28.187561%, 21.835327%)" offset="0.242187"/><stop stop-opacity="1" stop-color="rgb(100%, 28.482056%, 21.920776%)" offset="0.25"/><stop stop-opacity="1" stop-color="rgb(100%, 28.775024%, 22.006226%)" offset="0.257812"/><stop stop-opacity="1" stop-color="rgb(100%, 29.069519%, 22.093201%)" offset="0.265625"/><stop stop-opacity="1" stop-color="rgb(100%, 29.364014%, 22.17865%)" offset="0.273438"/><stop stop-opacity="1" stop-color="rgb(100%, 29.658508%, 22.264099%)" offset="0.28125"/><stop stop-opacity="1" stop-color="rgb(100%, 29.951477%, 22.349548%)" offset="0.289062"/><stop stop-opacity="1" stop-color="rgb(100%, 30.245972%, 22.436523%)" offset="0.296875"/><stop stop-opacity="1" stop-color="rgb(100%, 30.540466%, 22.521973%)" offset="0.304688"/><stop stop-opacity="1" stop-color="rgb(100%, 30.833435%, 22.607422%)" offset="0.3125"/><stop stop-opacity="1" stop-color="rgb(100%, 31.12793%, 22.692871%)" offset="0.320312"/><stop stop-opacity="1" stop-color="rgb(100%, 31.422424%, 22.77832%)" offset="0.328125"/><stop stop-opacity="1" stop-color="rgb(100%, 31.716919%, 22.865295%)" offset="0.335937"/><stop stop-opacity="1" stop-color="rgb(100%, 32.009888%, 22.950745%)" offset="0.34375"/><stop stop-opacity="1" stop-color="rgb(100%, 32.304382%, 23.036194%)" offset="0.351562"/><stop stop-opacity="1" stop-color="rgb(100%, 32.598877%, 23.121643%)" offset="0.359375"/><stop stop-opacity="1" stop-color="rgb(100%, 32.891846%, 23.208618%)" offset="0.367187"/><stop stop-opacity="1" stop-color="rgb(100%, 33.18634%, 23.294067%)" offset="0.375"/><stop stop-opacity="1" stop-color="rgb(100%, 33.480835%, 23.379517%)" offset="0.382812"/><stop stop-opacity="1" stop-color="rgb(100%, 33.77533%, 23.464966%)" offset="0.390625"/><stop stop-opacity="1" stop-color="rgb(100%, 34.068298%, 23.550415%)" offset="0.398437"/><stop stop-opacity="1" stop-color="rgb(100%, 34.362793%, 23.63739%)" offset="0.40625"/><stop stop-opacity="1" stop-color="rgb(100%, 34.657288%, 23.722839%)" offset="0.414062"/><stop stop-opacity="1" stop-color="rgb(100%, 34.951782%, 23.808289%)" offset="0.421875"/><stop stop-opacity="1" stop-color="rgb(100%, 35.244751%, 23.893738%)" offset="0.429687"/><stop stop-opacity="1" stop-color="rgb(100%, 35.539246%, 23.979187%)" offset="0.4375"/><stop stop-opacity="1" stop-color="rgb(100%, 35.83374%, 24.066162%)" offset="0.445312"/><stop stop-opacity="1" stop-color="rgb(100%, 36.126709%, 24.151611%)" offset="0.453125"/><stop stop-opacity="1" stop-color="rgb(100%, 36.421204%, 24.237061%)" offset="0.460938"/><stop stop-opacity="1" stop-color="rgb(100%, 36.715698%, 24.32251%)" offset="0.46875"/><stop stop-opacity="1" stop-color="rgb(100%, 37.010193%, 24.409485%)" offset="0.476562"/><stop stop-opacity="1" stop-color="rgb(100%, 37.303162%, 24.494934%)" offset="0.484375"/><stop stop-opacity="1" stop-color="rgb(100%, 37.597656%, 24.580383%)" offset="0.492188"/><stop stop-opacity="1" stop-color="rgb(100%, 37.892151%, 24.665833%)" offset="0.5"/><stop stop-opacity="1" stop-color="rgb(100%, 38.18512%, 24.751282%)" offset="0.507813"/><stop stop-opacity="1" stop-color="rgb(100%, 38.479614%, 24.838257%)" offset="0.515625"/><stop stop-opacity="1" stop-color="rgb(100%, 38.774109%, 24.923706%)" offset="0.523438"/><stop stop-opacity="1" stop-color="rgb(100%, 39.068604%, 25.009155%)" offset="0.53125"/><stop stop-opacity="1" stop-color="rgb(100%, 39.361572%, 25.094604%)" offset="0.539062"/><stop stop-opacity="1" stop-color="rgb(100%, 39.656067%, 25.18158%)" offset="0.546875"/><stop stop-opacity="1" stop-color="rgb(100%, 39.950562%, 25.267029%)" offset="0.554688"/><stop stop-opacity="1" stop-color="rgb(100%, 40.24353%, 25.352478%)" offset="0.5625"/><stop stop-opacity="1" stop-color="rgb(100%, 40.538025%, 25.437927%)" offset="0.570312"/><stop stop-opacity="1" stop-color="rgb(100%, 40.83252%, 25.523376%)" offset="0.578125"/><stop stop-opacity="1" stop-color="rgb(100%, 41.127014%, 25.610352%)" offset="0.585937"/><stop stop-opacity="1" stop-color="rgb(100%, 41.419983%, 25.695801%)" offset="0.59375"/><stop stop-opacity="1" stop-color="rgb(100%, 41.714478%, 25.78125%)" offset="0.601562"/><stop stop-opacity="1" stop-color="rgb(100%, 42.008972%, 25.866699%)" offset="0.609375"/><stop stop-opacity="1" stop-color="rgb(100%, 42.301941%, 25.952148%)" offset="0.617188"/><stop stop-opacity="1" stop-color="rgb(100%, 42.596436%, 26.039124%)" offset="0.625"/><stop stop-opacity="1" stop-color="rgb(100%, 42.89093%, 26.124573%)" offset="0.632812"/><stop stop-opacity="1" stop-color="rgb(100%, 43.185425%, 26.210022%)" offset="0.640625"/><stop stop-opacity="1" stop-color="rgb(100%, 43.478394%, 26.295471%)" offset="0.648438"/><stop stop-opacity="1" stop-color="rgb(100%, 43.772888%, 26.382446%)" offset="0.65625"/><stop stop-opacity="1" stop-color="rgb(100%, 44.067383%, 26.467896%)" offset="0.664062"/><stop stop-opacity="1" stop-color="rgb(100%, 44.360352%, 26.553345%)" offset="0.671875"/><stop stop-opacity="1" stop-color="rgb(100%, 44.654846%, 26.638794%)" offset="0.679687"/><stop stop-opacity="1" stop-color="rgb(100%, 44.949341%, 26.724243%)" offset="0.6875"/><stop stop-opacity="1" stop-color="rgb(100%, 45.243835%, 26.811218%)" offset="0.695312"/><stop stop-opacity="1" stop-color="rgb(100%, 45.536804%, 26.896667%)" offset="0.703125"/><stop stop-opacity="1" stop-color="rgb(100%, 45.831299%, 26.982117%)" offset="0.710937"/><stop stop-opacity="1" stop-color="rgb(100%, 46.125793%, 27.067566%)" offset="0.71875"/><stop stop-opacity="1" stop-color="rgb(100%, 46.418762%, 27.154541%)" offset="0.726562"/><stop stop-opacity="1" stop-color="rgb(100%, 46.713257%, 27.23999%)" offset="0.734375"/><stop stop-opacity="1" stop-color="rgb(100%, 47.007751%, 27.325439%)" offset="0.742188"/><stop stop-opacity="1" stop-color="rgb(100%, 47.302246%, 27.410889%)" offset="0.75"/><stop stop-opacity="1" stop-color="rgb(100%, 47.595215%, 27.496338%)" offset="0.757812"/><stop stop-opacity="1" stop-color="rgb(100%, 47.889709%, 27.583313%)" offset="0.765625"/><stop stop-opacity="1" stop-color="rgb(100%, 48.184204%, 27.668762%)" offset="0.773438"/><stop stop-opacity="1" stop-color="rgb(100%, 48.477173%, 27.754211%)" offset="0.78125"/><stop stop-opacity="1" stop-color="rgb(100%, 48.771667%, 27.839661%)" offset="0.789062"/><stop stop-opacity="1" stop-color="rgb(100%, 49.066162%, 27.92511%)" offset="0.796875"/><stop stop-opacity="1" stop-color="rgb(100%, 49.360657%, 28.012085%)" offset="0.804687"/><stop stop-opacity="1" stop-color="rgb(100%, 49.653625%, 28.097534%)" offset="0.8125"/><stop stop-opacity="1" stop-color="rgb(100%, 49.94812%, 28.182983%)" offset="0.820312"/><stop stop-opacity="1" stop-color="rgb(100%, 50.242615%, 28.268433%)" offset="0.828125"/><stop stop-opacity="1" stop-color="rgb(100%, 50.535583%, 28.355408%)" offset="0.835938"/><stop stop-opacity="1" stop-color="rgb(100%, 50.830078%, 28.440857%)" offset="0.84375"/><stop stop-opacity="1" stop-color="rgb(100%, 51.124573%, 28.526306%)" offset="0.851562"/><stop stop-opacity="1" stop-color="rgb(100%, 51.419067%, 28.611755%)" offset="0.859375"/><stop stop-opacity="1" stop-color="rgb(100%, 51.712036%, 28.697205%)" offset="0.867188"/><stop stop-opacity="1" stop-color="rgb(100%, 52.006531%, 28.78418%)" offset="0.875"/><stop stop-opacity="1" stop-color="rgb(100%, 52.301025%, 28.869629%)" offset="0.882812"/><stop stop-opacity="1" stop-color="rgb(100%, 52.59552%, 28.955078%)" offset="0.890625"/><stop stop-opacity="1" stop-color="rgb(100%, 52.888489%, 29.040527%)" offset="0.898438"/><stop stop-opacity="1" stop-color="rgb(100%, 53.182983%, 29.127502%)" offset="0.90625"/><stop stop-opacity="1" stop-color="rgb(100%, 53.477478%, 29.212952%)" offset="0.914062"/><stop stop-opacity="1" stop-color="rgb(100%, 53.770447%, 29.298401%)" offset="0.921875"/><stop stop-opacity="1" stop-color="rgb(100%, 54.064941%, 29.38385%)" offset="0.929687"/><stop stop-opacity="1" stop-color="rgb(100%, 54.359436%, 29.469299%)" offset="0.9375"/><stop stop-opacity="1" stop-color="rgb(100%, 54.653931%, 29.556274%)" offset="0.945313"/><stop stop-opacity="1" stop-color="rgb(100%, 54.946899%, 29.641724%)" offset="0.953125"/><stop stop-opacity="1" stop-color="rgb(100%, 55.241394%, 29.727173%)" offset="0.960938"/><stop stop-opacity="1" stop-color="rgb(100%, 55.535889%, 29.812622%)" offset="0.96875"/><stop stop-opacity="1" stop-color="rgb(100%, 55.828857%, 29.899597%)" offset="0.976562"/><stop stop-opacity="1" stop-color="rgb(100%, 56.123352%, 29.985046%)" offset="0.984375"/><stop stop-opacity="1" stop-color="rgb(100%, 56.417847%, 30.070496%)" offset="0.992188"/><stop stop-opacity="1" stop-color="rgb(100%, 56.712341%, 30.155945%)" offset="1"/></linearGradient><clipPath id="00a141ae2b"><rect x="0" width="144" y="0" height="144"/></clipPath><clipPath id="e38462d22d"><rect x="0" width="145" y="0" height="144"/></clipPath><clipPath id="c9597db237"><path d="M 0.183594 21 L 234 21 L 234 133 L 0.183594 133 Z M 0.183594 21 " clip-rule="nonzero"/></clipPath><clipPath id="9c2e28901a"><rect x="0" width="234" y="0" height="112"/></clipPath><clipPath id="27f15b331f"><rect x="0" width="348" y="0" height="158"/></clipPath></defs><g transform="matrix(1, 0, 0, 1, 16, 8)"><g clip-path="url(#27f15b331f)"><g clip-path="url(#a85276d1ac)"><g mask="url(#18e36deb1f)"><g transform="matrix(1, 0, 0, 1, 184, 14)"><g clip-path="url(#e38462d22d)"><g clip-path="url(#484aaa48e4)"><g clip-path="url(#3358559d4a)"><g transform="matrix(1, 0, 0, 1, -0.000000000000085265, -0.000000000000003553)"><g clip-path="url(#00a141ae2b)"><g clip-path="url(#e5cbbf275f)"><g clip-path="url(#4e3b59efa3)"><path fill="url(#a35162e159)" d="M 0.882812 0.21875 L 0.882812 143.269531 L 143.933594 143.269531 L 143.933594 0.21875 Z M 0.882812 0.21875 " fill-rule="nonzero"/></g></g></g></g></g></g><g fill="#ffffff" fill-opacity="1"><g transform="translate(71.569302, 72.745986)"><g/></g></g></g></g></g></g><g fill="#ffffff" fill-opacity="1"><g transform="translate(237.257053, 111.422862)"><g><path d="M 19.140625 -34.046875 C 17.472656 -34.046875 15.910156 -34.476562 14.453125 -35.34375 C 13.003906 -36.21875 11.84375 -37.378906 10.96875 -38.828125 C 10.101562 -40.273438 9.671875 -41.835938 9.671875 -43.515625 C 9.671875 -45.191406 10.101562 -46.753906 10.96875 -48.203125 C 11.84375 -49.648438 13.003906 -50.8125 14.453125 -51.6875 C 15.910156 -52.5625 17.472656 -53 19.140625 -53 C 20.816406 -53 22.378906 -52.5625 23.828125 -51.6875 C 25.285156 -50.8125 26.445312 -49.648438 27.3125 -48.203125 C 28.1875 -46.753906 28.625 -45.191406 28.625 -43.515625 C 28.625 -41.835938 28.1875 -40.273438 27.3125 -38.828125 C 26.445312 -37.378906 25.285156 -36.21875 23.828125 -35.34375 C 22.378906 -34.476562 20.816406 -34.046875 19.140625 -34.046875 Z M 19.140625 -2.90625 C 17.472656 -2.90625 15.910156 -3.335938 14.453125 -4.203125 C 13.003906 -5.078125 11.84375 -6.238281 10.96875 -7.6875 C 10.101562 -9.132812 9.671875 -10.695312 9.671875 -12.375 C 9.671875 -14.050781 10.101562 -15.613281 10.96875 -17.0625 C 11.84375 -18.519531 13.003906 -19.679688 14.453125 -20.546875 C 15.910156 -21.421875 17.472656 -21.859375 19.140625 -21.859375 C 20.816406 -21.859375 22.378906 -21.421875 23.828125 -20.546875 C 25.285156 -19.679688 26.445312 -18.519531 27.3125 -17.0625 C 28.1875 -15.613281 28.625 -14.050781 28.625 -12.375 C 28.625 -10.695312 28.1875 -9.132812 27.3125 -7.6875 C 26.445312 -6.238281 25.285156 -5.078125 23.828125 -4.203125 C 22.378906 -3.335938 20.816406 -2.90625 19.140625 -2.90625 Z M 19.140625 -2.90625 "/></g></g></g><g clip-path="url(#c9597db237)"><g transform="matrix(1, 0, 0, 1, -0.000000000000003553, 21)"><g clip-path="url(#9c2e28901a)"><g fill="#ffffff" fill-opacity="1"><g transform="translate(0.187949, 89.37107)"><g><path d="M 49.859375 -49.203125 L 49.859375 -12.0625 C 49.859375 -10.519531 49.859375 -8.878906 49.859375 -7.140625 C 49.859375 -5.410156 49.828125 -3.863281 49.765625 -2.5 C 49.515625 4.675781 47.332031 10.132812 43.21875 13.875 C 39.101562 17.625 33.488281 19.5 26.375 19.5 C 19.375 19.5 14.078125 18.085938 10.484375 15.265625 C 6.898438 12.453125 4.859375 8.445312 4.359375 3.25 L 4.265625 2.328125 L 12.34375 2.328125 L 12.4375 3.15625 C 12.75 6.1875 14.09375 8.644531 16.46875 10.53125 C 18.851562 12.425781 22.15625 13.375 26.375 13.375 C 31.257812 13.375 35 12.039062 37.59375 9.375 C 40.195312 6.71875 41.59375 3.035156 41.78125 -1.671875 C 41.84375 -2.847656 41.875 -3.851562 41.875 -4.6875 C 41.875 -5.519531 41.875 -6.3125 41.875 -7.0625 L 41.875 -7.890625 L 38.15625 -2.59375 C 36.789062 -1.414062 34.914062 -0.472656 32.53125 0.234375 C 30.15625 0.941406 27.695312 1.296875 25.15625 1.296875 C 20.394531 1.296875 16.34375 0.195312 13 -2 C 9.65625 -4.195312 7.113281 -7.195312 5.375 -11 C 3.644531 -14.8125 2.78125 -19.097656 2.78125 -23.859375 C 2.78125 -29.921875 3.894531 -34.914062 6.125 -38.84375 C 8.351562 -42.78125 11.304688 -45.707031 14.984375 -47.625 C 18.671875 -49.539062 22.617188 -50.5 26.828125 -50.5 C 28.867188 -50.5 31.035156 -50.21875 33.328125 -49.65625 C 35.617188 -49.101562 37.382812 -48.300781 38.625 -47.25 L 41.875 -42.421875 L 41.875 -49.203125 Z M 26.375 -4.828125 C 29.09375 -4.828125 31.628906 -5.460938 33.984375 -6.734375 C 36.335938 -8.003906 38.238281 -10.046875 39.6875 -12.859375 C 41.144531 -15.671875 41.875 -19.429688 41.875 -24.140625 L 41.875 -26.828125 C 41.875 -31.097656 41.113281 -34.515625 39.59375 -37.078125 C 38.082031 -39.648438 36.164062 -41.507812 33.84375 -42.65625 C 31.519531 -43.800781 29.179688 -44.375 26.828125 -44.375 C 22.492188 -44.375 18.859375 -42.71875 15.921875 -39.40625 C 12.984375 -36.09375 11.515625 -31.222656 11.515625 -24.796875 C 11.515625 -21.078125 12.070312 -17.71875 13.1875 -14.71875 C 14.300781 -11.71875 15.957031 -9.316406 18.15625 -7.515625 C 20.351562 -5.722656 23.09375 -4.828125 26.375 -4.828125 Z M 26.375 -4.828125 "/></g></g></g><g fill="#ffffff" fill-opacity="1"><g transform="translate(54.77618, 89.37107)"><g><path d="M 26.1875 -50.328125 C 27.539062 -50.328125 28.65625 -50.109375 29.53125 -49.671875 L 29.53125 -43.640625 C 25.375 -43.941406 21.890625 -42.820312 19.078125 -40.28125 C 16.265625 -37.75 14.859375 -33.664062 14.859375 -28.03125 L 14.859375 0 L 6.875 0 L 6.875 -49.203125 L 14.859375 -49.203125 L 14.859375 -41.5 L 19.3125 -48.09375 C 21.476562 -49.582031 23.769531 -50.328125 26.1875 -50.328125 Z M 26.1875 -50.328125 "/></g></g></g><g fill="#ffffff" fill-opacity="1"><g transform="translate(81.791711, 89.37107)"><g><path d="M 27.203125 -50.5 C 32.773438 -50.5 37.367188 -49.304688 40.984375 -46.921875 C 44.609375 -44.546875 47.285156 -41.390625 49.015625 -37.453125 C 50.753906 -33.523438 51.625 -29.242188 51.625 -24.609375 C 51.625 -20.023438 50.753906 -15.75 49.015625 -11.78125 C 47.285156 -7.820312 44.609375 -4.648438 40.984375 -2.265625 C 37.367188 0.109375 32.773438 1.296875 27.203125 1.296875 C 21.628906 1.296875 17.046875 0.109375 13.453125 -2.265625 C 9.867188 -4.648438 7.191406 -7.820312 5.421875 -11.78125 C 3.660156 -15.75 2.78125 -20.023438 2.78125 -24.609375 C 2.78125 -29.242188 3.660156 -33.523438 5.421875 -37.453125 C 7.191406 -41.390625 9.867188 -44.546875 13.453125 -46.921875 C 17.046875 -49.304688 21.628906 -50.5 27.203125 -50.5 Z M 27.203125 -4.828125 C 30.546875 -4.828125 33.378906 -5.675781 35.703125 -7.375 C 38.023438 -9.082031 39.800781 -11.421875 41.03125 -14.390625 C 42.269531 -17.359375 42.890625 -20.765625 42.890625 -24.609375 C 42.890625 -30.421875 41.507812 -35.164062 38.75 -38.84375 C 36 -42.53125 32.148438 -44.375 27.203125 -44.375 C 22.253906 -44.375 18.398438 -42.53125 15.640625 -38.84375 C 12.890625 -35.164062 11.515625 -30.421875 11.515625 -24.609375 C 11.515625 -20.765625 12.128906 -17.359375 13.359375 -14.390625 C 14.597656 -11.421875 16.378906 -9.082031 18.703125 -7.375 C 21.023438 -5.675781 23.859375 -4.828125 27.203125 -4.828125 Z M 27.203125 -4.828125 "/></g></g></g><g fill="#ffffff" fill-opacity="1"><g transform="translate(133.687661, 89.37107)"><g><path d="M 48.28125 -36.109375 C 48.40625 -34.878906 48.46875 -33.660156 48.46875 -32.453125 C 48.46875 -31.242188 48.46875 -29.648438 48.46875 -27.671875 L 48.46875 0 L 40.484375 0 L 40.484375 -27.109375 C 40.484375 -28.347656 40.484375 -29.523438 40.484375 -30.640625 C 40.484375 -31.753906 40.421875 -32.929688 40.296875 -34.171875 C 40.046875 -37.078125 39.066406 -39.472656 37.359375 -41.359375 C 35.660156 -43.242188 32.894531 -44.1875 29.0625 -44.1875 C 26.519531 -44.1875 24.164062 -43.472656 22 -42.046875 C 19.832031 -40.628906 18.097656 -38.28125 16.796875 -35 C 15.503906 -31.71875 14.859375 -27.257812 14.859375 -21.625 L 14.859375 0 L 6.875 0 L 6.875 -49.203125 L 14.859375 -49.203125 L 14.859375 -40.765625 L 17.921875 -46.421875 C 20.023438 -48.023438 22.066406 -49.101562 24.046875 -49.65625 C 26.023438 -50.21875 28.253906 -50.5 30.734375 -50.5 C 36.117188 -50.5 40.296875 -49.179688 43.265625 -46.546875 C 46.234375 -43.921875 47.90625 -40.441406 48.28125 -36.109375 Z M 48.28125 -36.109375 "/></g></g></g><g fill="#ffffff" fill-opacity="1"><g transform="translate(186.233463, 89.37107)"><g><path d="M 35.09375 0 L 34.265625 -7.0625 L 31.5625 -1.765625 C 29.894531 -0.585938 28.007812 0.210938 25.90625 0.640625 C 23.800781 1.078125 21.570312 1.296875 19.21875 1.296875 C 16.25 1.296875 13.570312 0.753906 11.1875 -0.328125 C 8.800781 -1.410156 6.894531 -2.988281 5.46875 -5.0625 C 4.050781 -7.132812 3.34375 -9.6875 3.34375 -12.71875 C 3.34375 -18.289062 5.539062 -22.5 9.9375 -25.34375 C 14.332031 -28.1875 21.359375 -29.609375 31.015625 -29.609375 L 34.171875 -29.609375 L 34.171875 -30.921875 C 34.171875 -31.972656 34.171875 -32.992188 34.171875 -33.984375 C 34.171875 -34.972656 34.109375 -35.929688 33.984375 -36.859375 C 33.796875 -39.148438 32.972656 -40.972656 31.515625 -42.328125 C 30.066406 -43.691406 27.703125 -44.375 24.421875 -44.375 C 21.078125 -44.375 18.550781 -43.492188 16.84375 -41.734375 C 15.144531 -39.972656 14.140625 -37.390625 13.828125 -33.984375 L 5.484375 -33.984375 C 5.847656 -39.242188 7.734375 -43.3125 11.140625 -46.1875 C 14.546875 -49.0625 18.972656 -50.5 24.421875 -50.5 C 30.296875 -50.5 34.5625 -49.335938 37.21875 -47.015625 C 39.882812 -44.703125 41.4375 -41.535156 41.875 -37.515625 C 42 -36.515625 42.078125 -35.441406 42.109375 -34.296875 C 42.140625 -33.160156 42.15625 -32.066406 42.15625 -31.015625 L 42.15625 -12.53125 C 42.15625 -10.675781 42.210938 -8.800781 42.328125 -6.90625 C 42.453125 -5.019531 42.703125 -2.71875 43.078125 0 Z M 21.90625 -4.828125 C 25.625 -4.828125 28.597656 -6.019531 30.828125 -8.40625 C 33.054688 -10.789062 34.171875 -14.207031 34.171875 -18.65625 L 34.171875 -23.671875 C 27.421875 -24.171875 22.046875 -23.628906 18.046875 -22.046875 C 14.054688 -20.472656 12.0625 -17.582031 12.0625 -13.375 C 12.0625 -10.394531 12.941406 -8.222656 14.703125 -6.859375 C 16.472656 -5.503906 18.875 -4.828125 21.90625 -4.828125 Z M 21.90625 -4.828125 "/></g></g></g></g></g></g><g fill="#ffffff" fill-opacity="1"><g transform="translate(276.692235, 109.60969)"><g><path d="M 33.5625 -74.46875 L 15.609375 5.390625 L 1.375 5.390625 L 19.203125 -74.46875 Z M 33.5625 -74.46875 "/></g></g></g><g fill="#ffffff" fill-opacity="1"><g transform="translate(311.639906, 109.60969)"><g><path d="M 33.5625 -74.46875 L 15.609375 5.390625 L 1.375 5.390625 L 19.203125 -74.46875 Z M 33.5625 -74.46875 "/></g></g></g></g></g></svg>