<svg xmlns="http://www.w3.org/2000/svg" xmlns:xlink="http://www.w3.org/1999/xlink" width="500" zoomAndPan="magnify" viewBox="0 0 375 194.87999" height="250" preserveAspectRatio="xMidYMid meet" version="1.0"><defs><filter x="0%" y="0%" width="100%" height="100%" id="4827380bbb"><feColorMatrix values="0 0 0 0 1 0 0 0 0 1 0 0 0 0 1 0 0 0 1 0" color-interpolation-filters="sRGB"/></filter><g/><clipPath id="52fcf6f232"><path d="M 184 14 L 332 14 L 332 157.5 L 184 157.5 Z M 184 14 " clip-rule="nonzero"/></clipPath><mask id="3037483343"><g filter="url(#4827380bbb)"><rect x="-94.5" width="540" fill="#000000" y="-50.873598" height="280.627186" fill-opacity="0.5"/></g></mask><clipPath id="a6a18952ec"><path d="M 0.226562 0.21875 L 147.746094 0.21875 L 147.746094 143.269531 L 0.226562 143.269531 Z M 0.226562 0.21875 " clip-rule="nonzero"/></clipPath><clipPath id="c5054bbd47"><path d="M 73.785156 0.21875 C 33.160156 0.21875 0.226562 32.242188 0.226562 71.742188 C 0.226562 111.246094 33.160156 143.269531 73.785156 143.269531 C 114.40625 143.269531 147.339844 111.246094 147.339844 71.742188 C 147.339844 32.242188 114.40625 0.21875 73.785156 0.21875 Z M 73.785156 0.21875 " clip-rule="nonzero"/></clipPath><clipPath id="0348f51486"><path d="M 0.226562 0.21875 L 147.1875 0.21875 L 147.1875 143.269531 L 0.226562 143.269531 Z M 0.226562 0.21875 " clip-rule="nonzero"/></clipPath><clipPath id="249ee1df29"><path d="M 73.785156 0.21875 C 33.160156 0.21875 0.226562 32.242188 0.226562 71.742188 C 0.226562 111.246094 33.160156 143.269531 73.785156 143.269531 C 114.40625 143.269531 147.339844 111.246094 147.339844 71.742188 C 147.339844 32.242188 114.40625 0.21875 73.785156 0.21875 Z M 73.785156 0.21875 " clip-rule="nonzero"/></clipPath><linearGradient x1="0.00419177" gradientTransform="matrix(0.558787, 0, 0, 0.558787, 0.223755, 0.219098)" y1="128" x2="263.004183" gradientUnits="userSpaceOnUse" y2="128" id="5527c9636f"><stop stop-opacity="1" stop-color="rgb(100%, 19.219971%, 19.219971%)" offset="0"/><stop stop-opacity="1" stop-color="rgb(100%, 19.366455%, 19.262695%)" offset="0.0078125"/><stop stop-opacity="1" stop-color="rgb(100%, 19.659424%, 19.348145%)" offset="0.015625"/><stop stop-opacity="1" stop-color="rgb(100%, 19.953918%, 19.433594%)" offset="0.0234375"/><stop stop-opacity="1" stop-color="rgb(100%, 20.246887%, 19.519043%)" offset="0.03125"/><stop stop-opacity="1" stop-color="rgb(100%, 20.541382%, 19.604492%)" offset="0.0390625"/><stop stop-opacity="1" stop-color="rgb(100%, 20.834351%, 19.689941%)" offset="0.046875"/><stop stop-opacity="1" stop-color="rgb(100%, 21.128845%, 19.776917%)" offset="0.0546875"/><stop stop-opacity="1" stop-color="rgb(100%, 21.42334%, 19.862366%)" offset="0.0625"/><stop stop-opacity="1" stop-color="rgb(100%, 21.716309%, 19.947815%)" offset="0.0703125"/><stop stop-opacity="1" stop-color="rgb(100%, 22.010803%, 20.033264%)" offset="0.078125"/><stop stop-opacity="1" stop-color="rgb(100%, 22.303772%, 20.118713%)" offset="0.0859375"/><stop stop-opacity="1" stop-color="rgb(100%, 22.598267%, 20.204163%)" offset="0.09375"/><stop stop-opacity="1" stop-color="rgb(100%, 22.891235%, 20.291138%)" offset="0.101562"/><stop stop-opacity="1" stop-color="rgb(100%, 23.18573%, 20.376587%)" offset="0.109375"/><stop stop-opacity="1" stop-color="rgb(100%, 23.478699%, 20.462036%)" offset="0.117188"/><stop stop-opacity="1" stop-color="rgb(100%, 23.773193%, 20.547485%)" offset="0.125"/><stop stop-opacity="1" stop-color="rgb(100%, 24.066162%, 20.632935%)" offset="0.132813"/><stop stop-opacity="1" stop-color="rgb(100%, 24.360657%, 20.718384%)" offset="0.140625"/><stop stop-opacity="1" stop-color="rgb(100%, 24.653625%, 20.803833%)" offset="0.148438"/><stop stop-opacity="1" stop-color="rgb(100%, 24.94812%, 20.890808%)" offset="0.15625"/><stop stop-opacity="1" stop-color="rgb(100%, 25.241089%, 20.976257%)" offset="0.164063"/><stop stop-opacity="1" stop-color="rgb(100%, 25.535583%, 21.061707%)" offset="0.171875"/><stop stop-opacity="1" stop-color="rgb(100%, 25.828552%, 21.147156%)" offset="0.179688"/><stop stop-opacity="1" stop-color="rgb(100%, 26.123047%, 21.232605%)" offset="0.1875"/><stop stop-opacity="1" stop-color="rgb(100%, 26.416016%, 21.318054%)" offset="0.195312"/><stop stop-opacity="1" stop-color="rgb(100%, 26.71051%, 21.405029%)" offset="0.203125"/><stop stop-opacity="1" stop-color="rgb(100%, 27.003479%, 21.490479%)" offset="0.210938"/><stop stop-opacity="1" stop-color="rgb(100%, 27.297974%, 21.575928%)" offset="0.21875"/><stop stop-opacity="1" stop-color="rgb(100%, 27.590942%, 21.661377%)" offset="0.226563"/><stop stop-opacity="1" stop-color="rgb(100%, 27.885437%, 21.746826%)" offset="0.234375"/><stop stop-opacity="1" stop-color="rgb(100%, 28.178406%, 21.832275%)" offset="0.242188"/><stop stop-opacity="1" stop-color="rgb(100%, 28.4729%, 21.91925%)" offset="0.25"/><stop stop-opacity="1" stop-color="rgb(100%, 28.765869%, 22.0047%)" offset="0.257813"/><stop stop-opacity="1" stop-color="rgb(100%, 29.060364%, 22.090149%)" offset="0.265625"/><stop stop-opacity="1" stop-color="rgb(100%, 29.353333%, 22.175598%)" offset="0.273438"/><stop stop-opacity="1" stop-color="rgb(100%, 29.647827%, 22.261047%)" offset="0.28125"/><stop stop-opacity="1" stop-color="rgb(100%, 29.940796%, 22.346497%)" offset="0.289062"/><stop stop-opacity="1" stop-color="rgb(100%, 30.235291%, 22.433472%)" offset="0.296875"/><stop stop-opacity="1" stop-color="rgb(100%, 30.529785%, 22.518921%)" offset="0.304688"/><stop stop-opacity="1" stop-color="rgb(100%, 30.822754%, 22.60437%)" offset="0.3125"/><stop stop-opacity="1" stop-color="rgb(100%, 31.117249%, 22.689819%)" offset="0.320312"/><stop stop-opacity="1" stop-color="rgb(100%, 31.410217%, 22.775269%)" offset="0.328125"/><stop stop-opacity="1" stop-color="rgb(100%, 31.704712%, 22.860718%)" offset="0.335938"/><stop stop-opacity="1" stop-color="rgb(100%, 31.997681%, 22.946167%)" offset="0.34375"/><stop stop-opacity="1" stop-color="rgb(100%, 32.292175%, 23.033142%)" offset="0.351563"/><stop stop-opacity="1" stop-color="rgb(100%, 32.585144%, 23.118591%)" offset="0.359375"/><stop stop-opacity="1" stop-color="rgb(100%, 32.879639%, 23.204041%)" offset="0.367188"/><stop stop-opacity="1" stop-color="rgb(100%, 33.172607%, 23.28949%)" offset="0.375"/><stop stop-opacity="1" stop-color="rgb(100%, 33.467102%, 23.374939%)" offset="0.382813"/><stop stop-opacity="1" stop-color="rgb(100%, 33.760071%, 23.460388%)" offset="0.390625"/><stop stop-opacity="1" stop-color="rgb(100%, 34.054565%, 23.547363%)" offset="0.398438"/><stop stop-opacity="1" stop-color="rgb(100%, 34.347534%, 23.632812%)" offset="0.40625"/><stop stop-opacity="1" stop-color="rgb(100%, 34.642029%, 23.718262%)" offset="0.414063"/><stop stop-opacity="1" stop-color="rgb(100%, 34.934998%, 23.803711%)" offset="0.421875"/><stop stop-opacity="1" stop-color="rgb(100%, 35.229492%, 23.88916%)" offset="0.429688"/><stop stop-opacity="1" stop-color="rgb(100%, 35.522461%, 23.974609%)" offset="0.4375"/><stop stop-opacity="1" stop-color="rgb(100%, 35.816956%, 24.061584%)" offset="0.445313"/><stop stop-opacity="1" stop-color="rgb(100%, 36.109924%, 24.147034%)" offset="0.453125"/><stop stop-opacity="1" stop-color="rgb(100%, 36.404419%, 24.232483%)" offset="0.460938"/><stop stop-opacity="1" stop-color="rgb(100%, 36.697388%, 24.317932%)" offset="0.46875"/><stop stop-opacity="1" stop-color="rgb(100%, 36.991882%, 24.403381%)" offset="0.476563"/><stop stop-opacity="1" stop-color="rgb(100%, 37.284851%, 24.488831%)" offset="0.484375"/><stop stop-opacity="1" stop-color="rgb(100%, 37.579346%, 24.57428%)" offset="0.492188"/><stop stop-opacity="1" stop-color="rgb(100%, 37.872314%, 24.661255%)" offset="0.5"/><stop stop-opacity="1" stop-color="rgb(100%, 38.166809%, 24.746704%)" offset="0.507812"/><stop stop-opacity="1" stop-color="rgb(100%, 38.459778%, 24.832153%)" offset="0.515625"/><stop stop-opacity="1" stop-color="rgb(100%, 38.754272%, 24.917603%)" offset="0.523438"/><stop stop-opacity="1" stop-color="rgb(100%, 39.047241%, 25.003052%)" offset="0.53125"/><stop stop-opacity="1" stop-color="rgb(100%, 39.341736%, 25.088501%)" offset="0.539062"/><stop stop-opacity="1" stop-color="rgb(100%, 39.63623%, 25.175476%)" offset="0.546875"/><stop stop-opacity="1" stop-color="rgb(100%, 39.929199%, 25.260925%)" offset="0.554688"/><stop stop-opacity="1" stop-color="rgb(100%, 40.223694%, 25.346375%)" offset="0.5625"/><stop stop-opacity="1" stop-color="rgb(100%, 40.516663%, 25.431824%)" offset="0.570312"/><stop stop-opacity="1" stop-color="rgb(100%, 40.811157%, 25.517273%)" offset="0.578125"/><stop stop-opacity="1" stop-color="rgb(100%, 41.104126%, 25.602722%)" offset="0.585938"/><stop stop-opacity="1" stop-color="rgb(100%, 41.398621%, 25.689697%)" offset="0.59375"/><stop stop-opacity="1" stop-color="rgb(100%, 41.691589%, 25.775146%)" offset="0.601562"/><stop stop-opacity="1" stop-color="rgb(100%, 41.986084%, 25.860596%)" offset="0.609375"/><stop stop-opacity="1" stop-color="rgb(100%, 42.279053%, 25.946045%)" offset="0.617188"/><stop stop-opacity="1" stop-color="rgb(100%, 42.573547%, 26.031494%)" offset="0.625"/><stop stop-opacity="1" stop-color="rgb(100%, 42.866516%, 26.116943%)" offset="0.632812"/><stop stop-opacity="1" stop-color="rgb(100%, 43.161011%, 26.203918%)" offset="0.640625"/><stop stop-opacity="1" stop-color="rgb(100%, 43.453979%, 26.289368%)" offset="0.648438"/><stop stop-opacity="1" stop-color="rgb(100%, 43.748474%, 26.374817%)" offset="0.65625"/><stop stop-opacity="1" stop-color="rgb(100%, 44.041443%, 26.460266%)" offset="0.664062"/><stop stop-opacity="1" stop-color="rgb(100%, 44.335938%, 26.545715%)" offset="0.671875"/><stop stop-opacity="1" stop-color="rgb(100%, 44.628906%, 26.631165%)" offset="0.679687"/><stop stop-opacity="1" stop-color="rgb(100%, 44.923401%, 26.716614%)" offset="0.6875"/><stop stop-opacity="1" stop-color="rgb(100%, 45.21637%, 26.803589%)" offset="0.695312"/><stop stop-opacity="1" stop-color="rgb(100%, 45.510864%, 26.889038%)" offset="0.703125"/><stop stop-opacity="1" stop-color="rgb(100%, 45.803833%, 26.974487%)" offset="0.710937"/><stop stop-opacity="1" stop-color="rgb(100%, 46.098328%, 27.059937%)" offset="0.71875"/><stop stop-opacity="1" stop-color="rgb(100%, 46.391296%, 27.145386%)" offset="0.726562"/><stop stop-opacity="1" stop-color="rgb(100%, 46.685791%, 27.230835%)" offset="0.734375"/><stop stop-opacity="1" stop-color="rgb(100%, 46.97876%, 27.31781%)" offset="0.742187"/><stop stop-opacity="1" stop-color="rgb(100%, 47.273254%, 27.403259%)" offset="0.75"/><stop stop-opacity="1" stop-color="rgb(100%, 47.566223%, 27.488708%)" offset="0.757812"/><stop stop-opacity="1" stop-color="rgb(100%, 47.860718%, 27.574158%)" offset="0.765625"/><stop stop-opacity="1" stop-color="rgb(100%, 48.155212%, 27.659607%)" offset="0.773437"/><stop stop-opacity="1" stop-color="rgb(100%, 48.448181%, 27.745056%)" offset="0.78125"/><stop stop-opacity="1" stop-color="rgb(100%, 48.742676%, 27.832031%)" offset="0.789062"/><stop stop-opacity="1" stop-color="rgb(100%, 49.035645%, 27.91748%)" offset="0.796875"/><stop stop-opacity="1" stop-color="rgb(100%, 49.330139%, 28.00293%)" offset="0.804688"/><stop stop-opacity="1" stop-color="rgb(100%, 49.623108%, 28.088379%)" offset="0.8125"/><stop stop-opacity="1" stop-color="rgb(100%, 49.917603%, 28.173828%)" offset="0.820313"/><stop stop-opacity="1" stop-color="rgb(100%, 50.210571%, 28.259277%)" offset="0.828125"/><stop stop-opacity="1" stop-color="rgb(100%, 50.505066%, 28.344727%)" offset="0.835938"/><stop stop-opacity="1" stop-color="rgb(100%, 50.798035%, 28.431702%)" offset="0.84375"/><stop stop-opacity="1" stop-color="rgb(100%, 51.092529%, 28.517151%)" offset="0.851563"/><stop stop-opacity="1" stop-color="rgb(100%, 51.385498%, 28.6026%)" offset="0.859375"/><stop stop-opacity="1" stop-color="rgb(100%, 51.679993%, 28.688049%)" offset="0.867188"/><stop stop-opacity="1" stop-color="rgb(100%, 51.972961%, 28.773499%)" offset="0.875"/><stop stop-opacity="1" stop-color="rgb(100%, 52.267456%, 28.858948%)" offset="0.882813"/><stop stop-opacity="1" stop-color="rgb(100%, 52.560425%, 28.945923%)" offset="0.890625"/><stop stop-opacity="1" stop-color="rgb(100%, 52.854919%, 29.031372%)" offset="0.898438"/><stop stop-opacity="1" stop-color="rgb(100%, 53.147888%, 29.116821%)" offset="0.90625"/><stop stop-opacity="1" stop-color="rgb(100%, 53.442383%, 29.202271%)" offset="0.914063"/><stop stop-opacity="1" stop-color="rgb(100%, 53.735352%, 29.28772%)" offset="0.921875"/><stop stop-opacity="1" stop-color="rgb(100%, 54.029846%, 29.373169%)" offset="0.929688"/><stop stop-opacity="1" stop-color="rgb(100%, 54.322815%, 29.460144%)" offset="0.9375"/><stop stop-opacity="1" stop-color="rgb(100%, 54.61731%, 29.545593%)" offset="0.945313"/><stop stop-opacity="1" stop-color="rgb(100%, 54.910278%, 29.631042%)" offset="0.953125"/><stop stop-opacity="1" stop-color="rgb(100%, 55.204773%, 29.716492%)" offset="0.960938"/><stop stop-opacity="1" stop-color="rgb(100%, 55.497742%, 29.801941%)" offset="0.96875"/><stop stop-opacity="1" stop-color="rgb(100%, 55.792236%, 29.88739%)" offset="0.976562"/><stop stop-opacity="1" stop-color="rgb(100%, 56.085205%, 29.974365%)" offset="0.984375"/><stop stop-opacity="1" stop-color="rgb(100%, 56.3797%, 30.059814%)" offset="0.992188"/><stop stop-opacity="1" stop-color="rgb(100%, 56.672668%, 30.145264%)" offset="1"/></linearGradient><clipPath id="cbc31444ef"><rect x="0" width="148" y="0" height="144"/></clipPath><clipPath id="5bfdf3f7b2"><rect x="0" width="148" y="0" height="144"/></clipPath><clipPath id="951cc4eb6d"><path d="M 0.109375 21 L 234 21 L 234 134 L 0.109375 134 Z M 0.109375 21 " clip-rule="nonzero"/></clipPath><clipPath id="5e868bfb84"><rect x="0" width="234" y="0" height="113"/></clipPath><clipPath id="65143f084a"><rect x="0" width="351" y="0" height="158"/></clipPath></defs><g transform="matrix(1, 0, 0, 1, 12, 8)"><g clip-path="url(#65143f084a)"><g clip-path="url(#52fcf6f232)"><g mask="url(#3037483343)"><g transform="matrix(1, 0, 0, 1, 184, 14)"><g clip-path="url(#5bfdf3f7b2)"><g clip-path="url(#a6a18952ec)"><g clip-path="url(#c5054bbd47)"><g transform="matrix(1, 0, 0, 1, -0.000000000000056843, -0.000000000000003553)"><g clip-path="url(#cbc31444ef)"><g clip-path="url(#0348f51486)"><g clip-path="url(#249ee1df29)"><path fill="url(#5527c9636f)" d="M 0.226562 0.21875 L 0.226562 143.269531 L 147.1875 143.269531 L 147.1875 0.21875 Z M 0.226562 0.21875 " fill-rule="nonzero"/></g></g></g></g></g></g><g fill="#ffffff" fill-opacity="1"><g transform="translate(72.951311, 72.745995)"><g/></g></g></g></g></g></g><g fill="#000000" fill-opacity="1"><g transform="translate(238.625671, 111.422871)"><g><path d="M 19.140625 -34.046875 C 17.472656 -34.046875 15.910156 -34.476562 14.453125 -35.34375 C 13.003906 -36.21875 11.84375 -37.378906 10.96875 -38.828125 C 10.101562 -40.273438 9.671875 -41.835938 9.671875 -43.515625 C 9.671875 -45.191406 10.101562 -46.753906 10.96875 -48.203125 C 11.84375 -49.648438 13.003906 -50.8125 14.453125 -51.6875 C 15.910156 -52.5625 17.472656 -53 19.140625 -53 C 20.816406 -53 22.378906 -52.5625 23.828125 -51.6875 C 25.285156 -50.8125 26.445312 -49.648438 27.3125 -48.203125 C 28.1875 -46.753906 28.625 -45.191406 28.625 -43.515625 C 28.625 -41.835938 28.1875 -40.273438 27.3125 -38.828125 C 26.445312 -37.378906 25.285156 -36.21875 23.828125 -35.34375 C 22.378906 -34.476562 20.816406 -34.046875 19.140625 -34.046875 Z M 19.140625 -2.90625 C 17.472656 -2.90625 15.910156 -3.335938 14.453125 -4.203125 C 13.003906 -5.078125 11.84375 -6.238281 10.96875 -7.6875 C 10.101562 -9.132812 9.671875 -10.695312 9.671875 -12.375 C 9.671875 -14.050781 10.101562 -15.613281 10.96875 -17.0625 C 11.84375 -18.519531 13.003906 -19.679688 14.453125 -20.546875 C 15.910156 -21.421875 17.472656 -21.859375 19.140625 -21.859375 C 20.816406 -21.859375 22.378906 -21.421875 23.828125 -20.546875 C 25.285156 -19.679688 26.445312 -18.519531 27.3125 -17.0625 C 28.1875 -15.613281 28.625 -14.050781 28.625 -12.375 C 28.625 -10.695312 28.1875 -9.132812 27.3125 -7.6875 C 26.445312 -6.238281 25.285156 -5.078125 23.828125 -4.203125 C 22.378906 -3.335938 20.816406 -2.90625 19.140625 -2.90625 Z M 19.140625 -2.90625 "/></g></g></g><g clip-path="url(#951cc4eb6d)"><g transform="matrix(1, 0, 0, 1, -0.000000000000003553, 21)"><g clip-path="url(#5e868bfb84)"><g fill="#000000" fill-opacity="1"><g transform="translate(0.186962, 90.222787)"><g><path d="M 49.84375 -49.1875 L 49.84375 -12.0625 C 49.84375 -10.519531 49.84375 -8.878906 49.84375 -7.140625 C 49.84375 -5.410156 49.8125 -3.863281 49.75 -2.5 C 49.5 4.675781 47.316406 10.132812 43.203125 13.875 C 39.085938 17.613281 33.472656 19.484375 26.359375 19.484375 C 19.367188 19.484375 14.078125 18.078125 10.484375 15.265625 C 6.898438 12.453125 4.859375 8.445312 4.359375 3.25 L 4.265625 2.328125 L 12.34375 2.328125 L 12.4375 3.15625 C 12.75 6.1875 14.09375 8.644531 16.46875 10.53125 C 18.851562 12.414062 22.148438 13.359375 26.359375 13.359375 C 31.242188 13.359375 34.984375 12.03125 37.578125 9.375 C 40.179688 6.71875 41.578125 3.035156 41.765625 -1.671875 C 41.828125 -2.847656 41.859375 -3.851562 41.859375 -4.6875 C 41.859375 -5.519531 41.859375 -6.304688 41.859375 -7.046875 L 41.859375 -7.890625 L 38.140625 -2.59375 C 36.785156 -1.414062 34.914062 -0.472656 32.53125 0.234375 C 30.144531 0.941406 27.6875 1.296875 25.15625 1.296875 C 20.382812 1.296875 16.328125 0.195312 12.984375 -2 C 9.648438 -4.195312 7.113281 -7.195312 5.375 -11 C 3.644531 -14.800781 2.78125 -19.085938 2.78125 -23.859375 C 2.78125 -29.921875 3.894531 -34.914062 6.125 -38.84375 C 8.351562 -42.769531 11.304688 -45.691406 14.984375 -47.609375 C 18.671875 -49.523438 22.617188 -50.484375 26.828125 -50.484375 C 28.867188 -50.484375 31.03125 -50.203125 33.3125 -49.640625 C 35.601562 -49.085938 37.367188 -48.285156 38.609375 -47.234375 L 41.859375 -42.421875 L 41.859375 -49.1875 Z M 26.359375 -4.828125 C 29.078125 -4.828125 31.613281 -5.457031 33.96875 -6.71875 C 36.320312 -7.988281 38.222656 -10.03125 39.671875 -12.84375 C 41.128906 -15.664062 41.859375 -19.425781 41.859375 -24.125 L 41.859375 -26.828125 C 41.859375 -31.097656 41.097656 -34.515625 39.578125 -37.078125 C 38.066406 -39.648438 36.148438 -41.503906 33.828125 -42.640625 C 31.503906 -43.785156 29.171875 -44.359375 26.828125 -44.359375 C 22.492188 -44.359375 18.859375 -42.703125 15.921875 -39.390625 C 12.984375 -36.085938 11.515625 -31.21875 11.515625 -24.78125 C 11.515625 -21.070312 12.066406 -17.710938 13.171875 -14.703125 C 14.285156 -11.703125 15.941406 -9.304688 18.140625 -7.515625 C 20.335938 -5.722656 23.078125 -4.828125 26.359375 -4.828125 Z M 26.359375 -4.828125 "/></g></g></g><g fill="#000000" fill-opacity="1"><g transform="translate(54.75662, 90.222787)"><g><path d="M 26.171875 -50.296875 C 27.535156 -50.296875 28.648438 -50.082031 29.515625 -49.65625 L 29.515625 -43.625 C 25.367188 -43.9375 21.882812 -42.820312 19.0625 -40.28125 C 16.25 -37.738281 14.84375 -33.65625 14.84375 -28.03125 L 14.84375 0 L 6.875 0 L 6.875 -49.1875 L 14.84375 -49.1875 L 14.84375 -41.484375 L 19.3125 -48.078125 C 21.46875 -49.554688 23.753906 -50.296875 26.171875 -50.296875 Z M 26.171875 -50.296875 "/></g></g></g><g fill="#000000" fill-opacity="1"><g transform="translate(81.762743, 90.222787)"><g><path d="M 27.1875 -50.484375 C 32.757812 -50.484375 37.351562 -49.289062 40.96875 -46.90625 C 44.59375 -44.53125 47.269531 -41.378906 49 -37.453125 C 50.738281 -33.523438 51.609375 -29.238281 51.609375 -24.59375 C 51.609375 -20.019531 50.738281 -15.75 49 -11.78125 C 47.269531 -7.820312 44.59375 -4.648438 40.96875 -2.265625 C 37.351562 0.109375 32.757812 1.296875 27.1875 1.296875 C 21.625 1.296875 17.046875 0.109375 13.453125 -2.265625 C 9.867188 -4.648438 7.191406 -7.820312 5.421875 -11.78125 C 3.660156 -15.75 2.78125 -20.019531 2.78125 -24.59375 C 2.78125 -29.238281 3.660156 -33.523438 5.421875 -37.453125 C 7.191406 -41.378906 9.867188 -44.53125 13.453125 -46.90625 C 17.046875 -49.289062 21.625 -50.484375 27.1875 -50.484375 Z M 27.1875 -4.828125 C 30.53125 -4.828125 33.363281 -5.675781 35.6875 -7.375 C 38.007812 -9.082031 39.785156 -11.421875 41.015625 -14.390625 C 42.253906 -17.359375 42.875 -20.757812 42.875 -24.59375 C 42.875 -30.40625 41.5 -35.148438 38.75 -38.828125 C 36 -42.515625 32.144531 -44.359375 27.1875 -44.359375 C 22.238281 -44.359375 18.390625 -42.515625 15.640625 -38.828125 C 12.890625 -35.148438 11.515625 -30.40625 11.515625 -24.59375 C 11.515625 -20.757812 12.128906 -17.359375 13.359375 -14.390625 C 14.597656 -11.421875 16.378906 -9.082031 18.703125 -7.375 C 21.023438 -5.675781 23.851562 -4.828125 27.1875 -4.828125 Z M 27.1875 -4.828125 "/></g></g></g><g fill="#000000" fill-opacity="1"><g transform="translate(133.641025, 90.222787)"><g><path d="M 48.265625 -36.109375 C 48.390625 -34.867188 48.453125 -33.644531 48.453125 -32.4375 C 48.453125 -31.226562 48.453125 -29.632812 48.453125 -27.65625 L 48.453125 0 L 40.46875 0 L 40.46875 -27.09375 C 40.46875 -28.332031 40.46875 -29.507812 40.46875 -30.625 C 40.46875 -31.738281 40.40625 -32.914062 40.28125 -34.15625 C 40.03125 -37.0625 39.054688 -39.457031 37.359375 -41.34375 C 35.660156 -43.226562 32.890625 -44.171875 29.046875 -44.171875 C 26.515625 -44.171875 24.164062 -43.457031 22 -42.03125 C 19.832031 -40.613281 18.097656 -38.265625 16.796875 -34.984375 C 15.492188 -31.710938 14.84375 -27.257812 14.84375 -21.625 L 14.84375 0 L 6.875 0 L 6.875 -49.1875 L 14.84375 -49.1875 L 14.84375 -40.75 L 17.90625 -46.40625 C 20.007812 -48.007812 22.050781 -49.085938 24.03125 -49.640625 C 26.019531 -50.203125 28.25 -50.484375 30.71875 -50.484375 C 36.101562 -50.484375 40.28125 -49.164062 43.25 -46.53125 C 46.21875 -43.90625 47.890625 -40.429688 48.265625 -36.109375 Z M 48.265625 -36.109375 "/></g></g></g><g fill="#000000" fill-opacity="1"><g transform="translate(186.168957, 90.222787)"><g><path d="M 35.078125 0 L 34.25 -7.046875 L 31.5625 -1.765625 C 29.882812 -0.585938 27.992188 0.210938 25.890625 0.640625 C 23.785156 1.078125 21.5625 1.296875 19.21875 1.296875 C 16.238281 1.296875 13.554688 0.753906 11.171875 -0.328125 C 8.796875 -1.410156 6.894531 -2.988281 5.46875 -5.0625 C 4.050781 -7.132812 3.34375 -9.6875 3.34375 -12.71875 C 3.34375 -18.28125 5.535156 -22.484375 9.921875 -25.328125 C 14.316406 -28.179688 21.34375 -29.609375 31 -29.609375 L 34.15625 -29.609375 L 34.15625 -30.90625 C 34.15625 -31.957031 34.15625 -32.976562 34.15625 -33.96875 C 34.15625 -34.957031 34.09375 -35.914062 33.96875 -36.84375 C 33.78125 -39.132812 32.957031 -40.957031 31.5 -42.3125 C 30.050781 -43.675781 27.6875 -44.359375 24.40625 -44.359375 C 21.0625 -44.359375 18.539062 -43.476562 16.84375 -41.71875 C 15.144531 -39.957031 14.140625 -37.375 13.828125 -33.96875 L 5.46875 -33.96875 C 5.84375 -39.226562 7.734375 -43.296875 11.140625 -46.171875 C 14.546875 -49.046875 18.96875 -50.484375 24.40625 -50.484375 C 30.289062 -50.484375 34.5625 -49.320312 37.21875 -47 C 39.875 -44.6875 41.421875 -41.519531 41.859375 -37.5 C 41.984375 -36.507812 42.0625 -35.441406 42.09375 -34.296875 C 42.125 -33.148438 42.140625 -32.050781 42.140625 -31 L 42.140625 -12.53125 C 42.140625 -10.675781 42.203125 -8.800781 42.328125 -6.90625 C 42.453125 -5.019531 42.695312 -2.71875 43.0625 0 Z M 21.90625 -4.828125 C 25.613281 -4.828125 28.582031 -6.015625 30.8125 -8.390625 C 33.039062 -10.773438 34.15625 -14.195312 34.15625 -18.65625 L 34.15625 -23.671875 C 27.40625 -24.160156 22.035156 -23.613281 18.046875 -22.03125 C 14.054688 -20.457031 12.0625 -17.566406 12.0625 -13.359375 C 12.0625 -10.390625 12.941406 -8.222656 14.703125 -6.859375 C 16.472656 -5.503906 18.875 -4.828125 21.90625 -4.828125 Z M 21.90625 -4.828125 "/></g></g></g></g></g></g><g fill="#000000" fill-opacity="1"><g transform="translate(279.630173, 109.609699)"><g><path d="M 33.5625 -74.46875 L 15.609375 5.390625 L 1.375 5.390625 L 19.203125 -74.46875 Z M 33.5625 -74.46875 "/></g></g></g><g fill="#000000" fill-opacity="1"><g transform="translate(314.577844, 109.609699)"><g><path d="M 33.5625 -74.46875 L 15.609375 5.390625 L 1.375 5.390625 L 19.203125 -74.46875 Z M 33.5625 -74.46875 "/></g></g></g></g></g></svg>